<svg width="100" height="31" viewBox="0 0 100 31" fill="none" xmlns="http://www.w3.org/2000/svg">
<path d="M4.48 23.192C3.86133 23.192 3.36 23 2.976 22.616C2.61333 22.232 2.432 21.7307 2.432 21.112V2.328C2.432 1.70933 2.61333 1.21867 2.976 0.856001C3.36 0.472001 3.86133 0.280001 4.48 0.280001C5.12 0.280001 5.62133 0.472001 5.984 0.856001C6.368 1.21867 6.56 1.70933 6.56 2.328V21.112C6.56 21.7307 6.368 22.232 5.984 22.616C5.62133 23 5.12 23.192 4.48 23.192ZM20.168 6.968C22.0453 6.968 23.4427 7.50133 24.36 8.568C25.2773 9.63467 25.736 11.2453 25.736 13.4V21.272C25.736 21.8693 25.5547 22.3387 25.192 22.68C24.8507 23.0213 24.3707 23.192 23.752 23.192C23.1333 23.192 22.6427 23.0213 22.28 22.68C21.9173 22.3387 21.736 21.8693 21.736 21.272V13.624C21.736 12.408 21.5013 11.5227 21.032 10.968C20.584 10.4133 19.8693 10.136 18.888 10.136C17.736 10.136 16.808 10.4987 16.104 11.224C15.4213 11.9493 15.08 12.92 15.08 14.136V21.272C15.08 21.8693 14.8987 22.3387 14.536 22.68C14.1733 23.0213 13.6827 23.192 13.064 23.192C12.4453 23.192 11.9547 23.0213 11.592 22.68C11.2507 22.3387 11.08 21.8693 11.08 21.272V8.888C11.08 8.33333 11.2613 7.88533 11.624 7.544C11.9867 7.20267 12.4773 7.032 13.096 7.032C13.6507 7.032 14.0987 7.20267 14.44 7.544C14.8027 7.864 14.984 8.29067 14.984 8.824V9.688C15.5173 8.81333 16.232 8.14133 17.128 7.672C18.024 7.20267 19.0373 6.968 20.168 6.968ZM35.4627 23.256C33.1374 23.256 31.2601 22.7973 29.8307 21.88C29.1481 21.4747 28.8068 20.8987 28.8068 20.152C28.8068 19.7253 28.9241 19.384 29.1588 19.128C29.3934 18.8507 29.6814 18.712 30.0227 18.712C30.3854 18.712 30.8868 18.8827 31.5268 19.224C32.2094 19.544 32.8281 19.7893 33.3828 19.96C33.9587 20.1307 34.6841 20.216 35.5588 20.216C36.4548 20.216 37.1481 20.0667 37.6388 19.768C38.1507 19.4693 38.4067 19.0533 38.4067 18.52C38.4067 18.1573 38.3001 17.8693 38.0868 17.656C37.8947 17.4427 37.5321 17.2507 36.9987 17.08C36.4867 16.888 35.6974 16.6747 34.6308 16.44C32.7321 16.056 31.3668 15.512 30.5347 14.808C29.7241 14.104 29.3188 13.1333 29.3188 11.896C29.3188 10.9573 29.5961 10.1147 30.1507 9.368C30.7054 8.6 31.4627 8.01333 32.4227 7.608C33.4041 7.18133 34.5134 6.968 35.7507 6.968C36.6468 6.968 37.5108 7.08533 38.3427 7.32C39.1747 7.53333 39.9214 7.85333 40.5828 8.28C41.2654 8.70667 41.6067 9.272 41.6067 9.976C41.6067 10.4027 41.4894 10.7653 41.2548 11.064C41.0201 11.3413 40.7321 11.48 40.3907 11.48C40.1561 11.48 39.9214 11.4373 39.6868 11.352C39.4734 11.2453 39.1961 11.096 38.8547 10.904C38.2361 10.584 37.7028 10.3493 37.2548 10.2C36.8068 10.0293 36.2521 9.944 35.5908 9.944C34.8014 9.944 34.1721 10.104 33.7028 10.424C33.2547 10.744 33.0307 11.1813 33.0307 11.736C33.0307 12.2693 33.2654 12.6747 33.7347 12.952C34.2041 13.2293 35.1107 13.5067 36.4548 13.784C37.8841 14.0827 39.0041 14.424 39.8147 14.808C40.6254 15.192 41.2014 15.672 41.5428 16.248C41.9054 16.824 42.0868 17.56 42.0868 18.456C42.0868 19.9067 41.4787 21.0693 40.2627 21.944C39.0681 22.8187 37.4681 23.256 35.4627 23.256ZM47.314 23.192C46.738 23.192 46.258 23.032 45.874 22.712C45.5113 22.3707 45.33 21.8907 45.33 21.272V8.92C45.33 8.30133 45.5113 7.832 45.874 7.512C46.258 7.192 46.738 7.032 47.314 7.032C47.89 7.032 48.37 7.192 48.754 7.512C49.138 7.832 49.33 8.30133 49.33 8.92V21.272C49.33 21.8907 49.138 22.3707 48.754 22.712C48.37 23.032 47.89 23.192 47.314 23.192ZM47.314 4.184C46.5887 4.184 46.0127 3.992 45.586 3.608C45.1593 3.20267 44.946 2.68 44.946 2.04C44.946 1.4 45.1593 0.888 45.586 0.504C46.0127 0.12 46.5887 -0.0720005 47.314 -0.0720005C48.018 -0.0720005 48.5833 0.12 49.01 0.504C49.458 0.888 49.682 1.4 49.682 2.04C49.682 2.68 49.4687 3.20267 49.042 3.608C48.6153 3.992 48.0393 4.184 47.314 4.184ZM66.703 7.032C67.3003 7.032 67.7803 7.20267 68.143 7.544C68.5057 7.88533 68.687 8.344 68.687 8.92V21.56C68.687 24.0133 68.0043 25.8693 66.639 27.128C65.2737 28.3867 63.2577 29.016 60.591 29.016C58.2657 29.016 56.3243 28.5787 54.767 27.704C53.9777 27.2347 53.583 26.6693 53.583 26.008C53.583 25.5387 53.6897 25.1653 53.903 24.888C54.1377 24.6107 54.4363 24.472 54.799 24.472C54.991 24.472 55.2257 24.5147 55.503 24.6C55.7803 24.7067 56.0683 24.824 56.367 24.952C57.135 25.272 57.8177 25.5173 58.415 25.688C59.0337 25.8587 59.7377 25.944 60.527 25.944C63.3217 25.944 64.719 24.5787 64.719 21.848V19.8C64.2497 20.6747 63.567 21.3573 62.671 21.848C61.775 22.3173 60.751 22.552 59.599 22.552C58.2337 22.552 57.0177 22.232 55.951 21.592C54.9057 20.9307 54.0843 20.0133 53.487 18.84C52.8897 17.6667 52.591 16.312 52.591 14.776C52.591 13.24 52.879 11.8853 53.455 10.712C54.0523 9.51733 54.8843 8.6 55.951 7.96C57.0177 7.29867 58.2337 6.968 59.599 6.968C60.751 6.968 61.775 7.21333 62.671 7.704C63.567 8.17333 64.2497 8.84533 64.719 9.72V8.888C64.719 8.33333 64.9003 7.88533 65.263 7.544C65.6257 7.20267 66.1057 7.032 66.703 7.032ZM60.655 19.448C61.935 19.448 62.927 19.032 63.631 18.2C64.3563 17.368 64.719 16.2267 64.719 14.776C64.719 13.304 64.3563 12.152 63.631 11.32C62.927 10.488 61.935 10.072 60.655 10.072C59.3963 10.072 58.4043 10.488 57.679 11.32C56.9537 12.152 56.591 13.304 56.591 14.776C56.591 16.2267 56.9537 17.368 57.679 18.2C58.4043 19.032 59.3963 19.448 60.655 19.448ZM81.982 6.968C85.6513 6.968 87.486 9.112 87.486 13.4V21.272C87.486 21.8693 87.3047 22.3387 86.942 22.68C86.6007 23.0213 86.1207 23.192 85.502 23.192C84.8833 23.192 84.3927 23.0213 84.03 22.68C83.6673 22.3387 83.486 21.8693 83.486 21.272V13.4C83.486 12.2693 83.2513 11.448 82.782 10.936C82.334 10.4027 81.6193 10.136 80.638 10.136C79.486 10.136 78.558 10.4987 77.854 11.224C77.1713 11.9493 76.83 12.92 76.83 14.136V21.272C76.83 21.8693 76.6487 22.3387 76.286 22.68C75.9233 23.0213 75.4327 23.192 74.814 23.192C74.1953 23.192 73.7047 23.0213 73.342 22.68C73.0007 22.3387 72.83 21.8693 72.83 21.272V2.136C72.83 1.58133 73.0113 1.13333 73.374 0.792C73.758 0.450667 74.2487 0.280001 74.846 0.280001C75.4433 0.280001 75.9233 0.440001 76.286 0.76C76.6487 1.08 76.83 1.51733 76.83 2.072V9.528C77.3633 8.696 78.0673 8.06667 78.942 7.64C79.838 7.192 80.8513 6.968 81.982 6.968ZM99.6768 20.216C100.743 20.28 101.277 20.76 101.277 21.656C101.277 22.168 101.063 22.5627 100.637 22.84C100.231 23.096 99.6448 23.2027 98.8767 23.16L98.0127 23.096C94.4287 22.84 92.6367 20.92 92.6367 17.336V10.36H91.0367C90.4607 10.36 90.0127 10.232 89.6928 9.976C89.3941 9.72 89.2447 9.34667 89.2447 8.856C89.2447 8.36533 89.3941 7.992 89.6928 7.736C90.0127 7.48 90.4607 7.352 91.0367 7.352H92.6367V4.408C92.6367 3.832 92.8181 3.37333 93.1807 3.032C93.5434 2.69067 94.0341 2.52 94.6528 2.52C95.2501 2.52 95.7301 2.69067 96.0928 3.032C96.4554 3.37333 96.6368 3.832 96.6368 4.408V7.352H99.3567C99.9327 7.352 100.37 7.48 100.669 7.736C100.989 7.992 101.149 8.36533 101.149 8.856C101.149 9.34667 100.989 9.72 100.669 9.976C100.37 10.232 99.9327 10.36 99.3567 10.36H96.6368V17.624C96.6368 19.2027 97.3621 20.0453 98.8127 20.152L99.6768 20.216Z" transform="translate(-2 1)" fill="#0099FF"/>
</svg>
